<svg width="75" height="81" viewBox="0 0 75 81" fill="none" xmlns="http://www.w3.org/2000/svg">
<path d="M33.841 0.00613199C32.1366 0.031444 30.4116 0.138656 28.6713 0.345632C26.1129 0.807967 23.6419 1.55503 21.4329 2.51913C18.6501 3.56924 15.7723 4.65401 13.1707 4.80813C13.0391 4.81529 12.9103 4.83375 12.7831 4.86063C9.14604 5.64014 6.0091 7.50606 3.98997 10.0686L3.66555 10.4606C3.59867 10.543 3.53615 10.63 3.48438 10.7196C1.70469 13.8126 1.23095 17.3549 2.1909 20.8206C2.80786 22.4961 3.54353 24.1056 4.25541 25.6646L4.4745 26.1371C6.13769 29.3788 7.34576 32.7844 8.06842 36.2591C8.10509 36.4347 8.17153 36.6054 8.26644 36.7631C8.97616 37.9315 9.5315 39.1611 9.9349 40.4836C10.1139 41.0015 10.2968 41.5333 10.4953 42.0691C10.5514 42.2214 10.6594 42.3461 10.7565 42.4751C10.7608 42.6632 10.7905 42.8523 10.866 43.0351L13.8617 50.1541C14.0644 50.6379 14.5056 51.0245 15.0751 51.2181C15.6467 51.4116 16.2882 51.3931 16.8405 51.1691C22.4966 48.8861 35.7447 43.5406 54.0226 53.0346C54.3721 53.2156 54.7695 53.3076 55.1686 53.3076C55.4598 53.3076 55.7499 53.2609 56.0239 53.1606C56.6754 52.9258 57.1478 52.4409 57.2837 51.8621C57.7259 49.993 57.8832 46.9931 57.7387 44.5506L57.8735 44.0151C58.0483 43.3072 58.221 42.5897 58.4044 41.8801C60.1129 38.7226 63.1348 35.6703 66.0599 32.7171C70.644 28.0884 75.3851 23.3032 74.9752 17.9541C74.9558 17.7104 74.8793 17.4709 74.7477 17.2541C74.0725 16.1502 73.316 15.0756 72.3798 13.8696L72.1986 13.6281C71.9808 13.345 71.7615 13.0656 71.5372 12.7986C71.3689 12.5979 71.1978 12.4075 71.0274 12.2211L70.8462 12.0181C70.5032 11.6382 70.1613 11.26 69.8097 10.9016C69.6199 10.7117 69.4322 10.5309 69.1819 10.2961C68.7915 9.92338 68.4034 9.56389 68.0064 9.22162L67.484 8.78062C67.0245 8.40251 66.5635 8.04285 66.1105 7.71312L65.7776 7.47512C60.0416 3.41087 54.1509 2.34192 50.5635 1.68963L48.5622 1.31513C43.8897 0.570555 38.9543 -0.0698039 33.841 0.00613199ZM35.9814 3.59713C37.9336 3.64484 39.9179 3.79988 41.9726 4.03463C34.9445 12.7276 36.1431 24.4828 37.7804 34.7366C35.6362 34.5986 33.4397 34.5595 31.2372 34.6491C29.9903 28.5455 28.6868 20.8834 27.5759 14.8461C27.2437 12.1277 27.5318 9.38298 28.4227 6.75412C29.3072 5.17179 29.39 4.27859 30.1839 3.80013C32.1113 3.60749 34.0291 3.54942 35.9814 3.59713ZM29.0168 3.97163C28.0612 4.64363 27.3637 5.70412 26.8891 7.04812C26.0931 9.78092 25.8233 12.5981 26.0886 15.4026C26.6149 21.9506 28.0467 28.4152 30.2471 34.7051C28.1676 34.8269 26.0994 35.0569 24.1083 35.4261C22.5983 31.102 22.8642 26.1884 22.3767 21.6081C21.8827 16.3719 19.8095 11.4114 17.1691 8.47612C16.9879 8.11772 17.0098 7.93707 17.0638 7.79012C18.2114 7.51057 19.3423 7.16919 20.4554 6.78212C20.587 6.84305 20.7202 6.90277 20.8388 6.98162L20.881 6.93962C20.7645 6.87153 20.6416 6.82026 20.5186 6.76112C21.4721 6.42781 22.4143 6.08498 23.3247 5.73912C25.1669 4.93631 27.1185 4.35153 29.0168 3.97163ZM20.8388 6.98162L20.8136 7.00612H20.881C20.868 6.99716 20.8539 6.99237 20.8388 6.98162ZM42.0906 4.04513C43.8919 4.253 45.7443 4.51561 47.6858 4.82563L49.7082 5.20363C51.2031 5.47601 53.0526 5.82301 55.0717 6.42512C51.577 11.6165 49.2194 17.2876 48.1451 23.1761C47.3728 27.4339 47.02 31.7308 47.0243 36.0316C44.3969 35.4348 41.3896 34.9939 38.2228 34.7681C38.0977 32.4833 38.0074 30.1595 38.1217 28.8531C38.497 24.5254 38.9325 11.1432 42.0906 4.04513ZM55.6236 6.58262C57.9448 7.32272 60.4734 8.42583 62.9758 10.1981L63.2581 10.4046C63.655 10.6931 64.0493 11.0025 64.4462 11.3286L64.9013 11.7101C65.2421 12.0058 65.5826 12.3187 65.9925 12.7111C66.1543 12.8652 66.3153 13.0189 66.4728 13.1766C66.7101 13.4185 66.9413 13.6781 67.1764 13.9361C63.1899 15.2228 56.5717 27.4341 55.67 38.4746C55.5125 38.7057 55.349 38.9346 55.2023 39.1676C53.401 37.9096 50.8449 36.9996 48.5453 36.3921C48.1829 36.2971 47.7916 36.2122 47.412 36.1226C47.7571 31.7931 48.2457 27.2553 48.7181 23.1516C50.2497 16.4137 54.174 12.9586 55.6236 6.58262ZM16.3896 7.96162C16.4953 8.2125 16.6605 8.44862 16.8784 8.65112C19.4929 11.5972 19.9998 16.3896 20.565 21.6151C21.046 26.2223 21.5977 31.1626 23.6449 35.5136C21.8997 35.8594 20.227 36.3157 18.6479 36.8856C17.3579 33.0095 16.7432 28.6395 15.7703 24.6881C14.4501 19.3444 14.2772 14.5618 12.0963 13.1031C11.2593 12.1444 9.01897 12.2292 10.0781 10.4676C10.3305 10.0913 10.6441 9.74785 10.9461 9.39662C11.8003 8.96296 12.7052 8.59512 13.6889 8.37112C14.5906 8.30482 15.4922 8.15516 16.3896 7.96162ZM10.2256 9.75712C10.0228 9.9865 9.82242 10.22 9.67789 10.4816C9.28744 11.0801 9.11786 11.7607 9.19336 12.4381C9.26023 12.7929 9.43382 13.1296 9.69053 13.4181C11.8456 14.8463 12.9631 19.3851 14.2704 24.7091C15.2562 28.7214 16.3972 33.1606 18.1424 37.0851C16.6323 37.6639 15.2292 38.3591 13.9586 39.1781C13.5314 37.8789 12.9747 36.6043 12.2606 35.3911C11.4754 31.7318 10.1922 28.1493 8.47289 24.8001L8.28751 24.3941C7.60152 22.8906 6.89076 21.3373 6.35362 19.9001C5.66331 17.3895 5.99866 14.7276 7.3016 12.3926L7.56283 12.0811C8.28117 11.169 9.18585 10.3861 10.2256 9.75712ZM67.3745 14.1531C67.3788 14.1567 67.3786 14.1582 67.3829 14.1636L67.5851 14.3841C67.7275 14.5364 67.8663 14.6918 68.0022 14.8531C68.1921 15.0789 68.3771 15.3182 68.5626 15.5601L68.7564 15.8121C69.5136 16.7852 70.1338 17.6606 70.6861 18.5351C70.7335 22.361 66.843 26.29 62.7314 30.4421C61.1308 32.0567 59.5069 33.6991 58.0378 35.4051C61.3578 28.3446 64.5636 21.3104 67.3745 14.1531ZM32.7119 38.2191C37.9538 38.1193 43.2253 38.7508 47.2392 39.8116C52.0303 41.0767 53.1726 42.4031 53.2179 42.7866C53.2977 43.2274 53.3538 43.7638 53.3948 44.3301L53.3822 44.3756C53.3088 44.6677 53.3526 44.9503 53.4454 45.2191C53.4864 46.3122 53.4724 47.4895 53.399 48.5791C45.8769 45.1707 39.11 44.0291 33.3438 44.0291C26.2984 44.0291 20.7505 45.7351 17.148 47.0881L15.37 42.8636C19.2821 39.6823 25.9722 38.3474 32.7119 38.2191ZM21.7363 54.6166L20.7588 55.1626C21.173 55.7396 21.7089 56.2499 22.3388 56.6711C22.8349 56.9291 23.4142 57.0549 23.9988 57.0316C24.2987 57.0298 24.5945 56.9964 24.8836 56.9266L28.1447 55.9466C28.3669 55.8749 28.6026 55.8381 28.8399 55.8381C29.198 55.8183 29.5554 55.8989 29.8553 56.0656C30.2673 56.3451 30.6237 56.6729 30.9128 57.0421L31.8397 56.6116V56.5906C31.4385 56.0727 30.9369 55.6143 30.3566 55.2326C29.8907 54.9638 29.3356 54.8211 28.7682 54.8301C28.5784 54.8265 28.3868 54.8566 28.2121 54.9176L24.6814 55.8976C24.457 55.9549 24.2213 55.9799 23.9862 55.9746C23.5677 55.9996 23.1494 55.9041 22.8064 55.7016C22.3772 55.3915 22.0167 55.0251 21.7363 54.6166ZM57.9578 56.5696C57.6213 56.5946 57.3118 56.7324 57.0983 56.9511C56.8416 57.132 56.6779 57.3855 56.639 57.6651C56.6153 57.726 56.6153 57.7931 56.639 57.8541C57.3984 58.5207 58.3687 58.9898 59.4409 59.2121C60.513 59.4862 61.5861 59.7506 62.6345 59.9961C63.6959 60.2882 64.5969 60.8857 65.1793 61.6796C65.1901 61.7154 65.1901 61.7522 65.1793 61.7881C65.1793 61.9547 64.6976 62.2269 63.7679 62.6175C63.2976 62.8433 62.5905 63.3404 61.4127 64.084C60.6771 64.584 59.8901 65.0271 59.0574 65.407C58.3499 65.6687 57.7288 66.0724 57.2542 66.5795C57.2434 66.5885 57.2333 66.5968 57.2247 66.6075C56.8493 66.9659 56.8944 67.5137 57.3258 67.8255C57.5501 68.0047 57.8514 68.1021 58.1642 68.0985C58.3864 68.095 58.6041 68.0481 58.8004 67.962C60.3191 67.1664 61.7782 66.2919 63.1696 65.3475C64.5804 64.3763 66.0537 63.4652 67.5767 62.6175C68.4245 62.1875 68.8365 61.7376 68.8365 61.2771C68.8084 60.9688 68.6057 60.6894 68.2929 60.5246C66.477 59.17 64.3344 58.1642 62.011 57.5601L60.3004 56.9441C59.7244 56.7272 59.1059 56.6 58.476 56.5696C58.3034 56.5498 58.1282 56.5498 57.9578 56.5696ZM10.9671 56.6711C9.46143 57.6101 7.81444 58.3794 6.06711 58.9601C4.33488 59.5532 2.69407 60.3158 1.17972 61.2316C0.444113 61.7781 0.0151004 62.5546 0 63.3736C0.0862878 63.6836 0.351893 63.9413 0.70783 64.0595C1.02494 64.1474 1.35762 64.253 1.67688 64.3605C4.89758 65.4949 7.91998 66.717 10.7481 68.0215C11.1234 68.2473 11.4755 68.4947 11.8056 68.7635C12.0213 68.8424 12.253 68.8825 12.4881 68.8825C13.0684 68.8861 13.6342 68.72 14.0808 68.4135C14.5359 68.1447 14.7755 67.6911 14.7043 67.2305C14.7237 66.8919 14.4793 66.579 14.1018 66.4535L9.22707 64.6721C7.60917 64.1022 6.03108 63.4485 4.51242 62.7155C5.57807 61.6135 7.015 60.7971 8.63721 60.3671C10.2486 59.9352 11.7358 59.2321 13.0064 58.3021C13.1897 58.1569 13.2908 57.9552 13.2887 57.7456C13.28 57.4499 13.112 57.1723 12.8294 56.9931C12.4929 56.778 12.0789 56.6639 11.6539 56.6711H10.9671ZM45.0567 59.4396C44.1076 59.4109 43.1815 59.6965 42.4782 60.2306C41.6865 60.8811 41.354 61.8229 41.5934 62.7261C41.7013 63.579 42.113 64.3871 42.7731 65.0465C43.3297 65.663 44.2008 66.023 45.1284 66.023C45.7367 66.0159 46.3315 65.8836 46.86 65.6345C48.0184 64.9464 48.6275 63.7843 48.4484 62.6105C48.3902 61.2898 48.015 60.3981 47.2729 59.9681C46.6171 59.6061 45.8441 59.4216 45.0567 59.4396ZM26.7754 59.5061C25.8262 59.4756 24.9001 59.7578 24.1968 60.2901C23.4008 60.9388 23.0621 61.8806 23.2994 62.7855C23.4137 63.6367 23.8255 64.443 24.4791 65.106C25.0335 65.7225 25.9067 66.0843 26.8343 66.0825C27.4427 66.0736 28.0353 65.9413 28.566 65.694C29.6252 65.1654 30.146 64.1664 30.146 62.6701C30.2819 61.688 29.8544 60.7085 28.9915 60.0276C28.3357 59.6674 27.5606 59.4863 26.7754 59.5061ZM26.729 61.6096C27.3805 61.6096 27.9087 62.0484 27.9087 62.5896C27.9087 63.1307 27.3805 63.5695 26.729 63.5695C26.0775 63.5695 25.5493 63.1307 25.5493 62.5896C25.5493 62.0484 26.0775 61.6096 26.729 61.6096ZM44.6818 61.7215C45.3311 61.7198 45.8615 62.1569 45.8615 62.6981C45.8615 63.2392 45.3311 63.678 44.6818 63.678C44.0303 63.678 43.5063 63.2392 43.5063 62.6981C43.5063 62.1569 44.0303 61.7215 44.6818 61.7215ZM33.268 68.592C33.2421 68.6135 33.2262 68.6386 33.2132 68.669V68.7495C33.375 69.1241 33.5782 69.4818 33.8242 69.824C34.0463 70.152 34.3264 70.4549 34.65 70.7165C34.9412 70.9692 35.2815 71.1784 35.6611 71.3325C36.0343 71.4634 36.4353 71.5353 36.8409 71.546L36.8872 71.588C37.2129 71.5898 37.5352 71.5396 37.8394 71.441C38.1306 71.3425 38.4064 71.2154 38.661 71.063C38.9026 70.9018 39.1302 70.7263 39.3351 70.5345C39.5293 70.3518 39.7003 70.1562 39.8491 69.9465C39.9915 69.762 40.1205 69.5697 40.2283 69.369C40.3125 69.2239 40.381 69.0752 40.4306 68.921V68.8335C40.4068 68.8067 40.3867 68.7765 40.3716 68.746C40.0653 69.1385 39.6847 69.483 39.2424 69.7715C38.9037 70.0368 38.5006 70.241 38.0627 70.37C37.6205 70.4973 37.1531 70.5591 36.685 70.5555C36.2859 70.5609 35.8871 70.514 35.5053 70.419C35.1774 70.333 34.8712 70.1991 34.5994 70.027C34.3233 69.8425 34.0736 69.6352 33.8579 69.404C33.6314 69.1496 33.4319 68.877 33.268 68.592ZM30.146 72.3475C25.4347 72.5536 22.6887 77.5802 16.1158 72.9425C14.3253 81.847 27.4244 82.7301 32.8088 78.707C36.5321 75.9473 35.4829 72.102 30.146 72.3475ZM40.9404 72.3475C36.4414 72.578 35.7392 76.1215 39.2298 78.707C44.6141 82.7283 57.709 81.847 55.9186 72.9425C49.3456 77.5802 46.6018 72.5518 41.8884 72.3475C41.5548 72.3322 41.2403 72.3322 40.9404 72.3475Z" fill="#B7AB98"/>
</svg>
