<svg width="147" height="147" viewBox="0 0 147 147" fill="none" xmlns="http://www.w3.org/2000/svg">
<path id="Vector" d="M122.959 45.908C122.634 48.0489 123.352 50.2164 124.881 51.7456L135.306 62.1707C138.431 65.2955 140 69.3978 140 73.5C140 77.6022 138.438 81.6978 135.306 84.8293L124.595 95.5403C123.875 96.2595 122.997 96.8001 122.03 97.1187C121.064 97.4374 120.037 97.5253 119.03 97.3754C115.905 96.91 113.698 94.184 112.594 91.2254C111.626 88.611 110.016 86.2821 107.912 84.4528C105.808 82.6235 103.278 81.3526 100.554 80.7569C97.8306 80.1612 95.0009 80.2599 92.3255 81.0438C89.65 81.8278 87.2146 83.2718 85.2432 85.2432C83.2718 87.2146 81.8278 89.65 81.0438 92.3255C80.2599 95.0009 80.1612 97.8306 80.7569 100.554C81.3526 103.278 82.6235 105.808 84.4528 107.912C86.2821 110.016 88.611 111.626 91.2254 112.594C94.1907 113.698 96.91 115.899 97.3754 119.03C97.5258 120.037 97.4382 121.064 97.1195 122.031C96.8008 122.997 96.2599 123.875 95.5403 124.595L84.836 135.299C83.3493 136.791 81.5825 137.974 79.6371 138.781C77.6917 139.588 75.606 140.002 73.5 140C71.3954 140.003 69.3111 139.589 67.3668 138.784C65.4225 137.978 63.6566 136.796 62.1707 135.306L51.7456 124.881C50.992 124.126 50.072 123.558 49.0594 123.224C48.0467 122.889 46.9697 122.796 45.9147 122.953C42.6369 123.445 40.3298 126.304 39.133 129.389C38.1299 131.963 36.5007 134.248 34.3928 136.034C32.2849 137.821 29.7649 139.054 27.0606 139.622C24.3563 140.19 21.5531 140.074 18.9046 139.286C16.2561 138.498 13.8459 137.062 11.892 135.108C9.93803 133.154 8.50207 130.744 7.71396 128.095C6.92585 125.447 6.81046 122.644 7.37824 119.939C7.94601 117.235 9.17903 114.715 10.9658 112.607C12.7525 110.499 15.0365 108.87 17.6113 107.867C20.6963 106.67 23.5552 104.363 24.0406 101.085C24.1982 100.031 24.1065 98.9541 23.7729 97.9415C23.4392 96.9289 22.8728 96.0086 22.1191 95.2544L11.694 84.8293C10.2037 83.3434 9.02176 81.5775 8.2162 79.6332C7.41065 77.6889 6.99733 75.6046 7.00001 73.5C7.00001 69.3978 8.5691 65.2955 11.694 62.1707L21.8398 52.0248C23.4355 50.4291 25.7027 49.6778 27.9367 50.0103C31.3607 50.5222 33.7676 53.5208 35.0707 56.7254C36.1059 59.2635 37.7527 61.5062 39.8645 63.2538C41.9763 65.0014 44.4875 66.1995 47.1744 66.7416C49.8614 67.2837 52.6407 67.1528 55.2649 66.3607C57.889 65.5686 60.2765 64.1397 62.2148 62.2015C64.153 60.2632 65.5818 57.8757 66.374 55.2516C67.1661 52.6274 67.297 49.8481 66.7549 47.1611C66.2128 44.4742 65.0147 41.963 63.2671 39.8512C61.5195 37.7394 59.2768 36.0926 56.7387 35.0574C53.534 33.7543 50.5355 31.3474 50.0235 27.9234C49.6911 25.6894 50.4358 23.4289 52.0381 21.8265L62.1773 11.6873C63.6631 10.199 65.4281 9.01879 67.3712 8.21441C69.3142 7.41003 71.397 6.99734 73.5 7.00001C77.6022 7.00001 81.7045 8.5691 84.8293 11.694L95.2544 22.1191C96.7836 23.6483 98.9511 24.3663 101.085 24.0472C104.363 23.5552 106.67 20.6963 107.867 17.6113C108.87 15.0365 110.499 12.7525 112.607 10.9658C114.715 9.17903 117.235 7.94601 119.939 7.37824C122.644 6.81046 125.447 6.92585 128.095 7.71396C130.744 8.50207 133.154 9.93803 135.108 11.892C137.062 13.8459 138.498 16.2561 139.286 18.9046C140.074 21.5531 140.19 24.3563 139.622 27.0606C139.054 29.7649 137.821 32.2849 136.034 34.3928C134.248 36.5007 131.963 38.1299 129.389 39.133C126.304 40.3298 123.445 42.6302 122.959 45.908Z" stroke="#B7B198" stroke-width="13.2973" stroke-linecap="round" stroke-linejoin="round"/>
</svg>
