<svg width="133" height="157" viewBox="0 0 133 157" fill="none" xmlns="http://www.w3.org/2000/svg">
<g id="Group">
<path id="Vector" d="M28.499 44C28.499 33.9218 32.5026 24.2563 39.629 17.1299C46.7553 10.0036 56.4208 6 66.499 6C76.5772 6 86.2427 10.0036 93.3691 17.1299C100.495 24.2563 104.499 33.9218 104.499 44V66.8C104.499 76.8782 100.495 86.5437 93.3691 93.6701C86.2427 100.796 76.5772 104.8 66.499 104.8C56.4208 104.8 46.7553 100.796 39.629 93.6701C32.5026 86.5437 28.499 76.8782 28.499 66.8V44Z" stroke="#B7B198" stroke-width="11.4"/>
<path id="Vector_2" d="M74.1 43.9998H104.5M74.1 66.7998H104.5M66.5 127.6V150.4" stroke="#B7B198" stroke-width="11.4" stroke-linecap="round"/>
<path id="Vector_3" d="M133 59.2C133 57.6883 132.399 56.2385 131.331 55.1695C130.262 54.1005 128.812 53.5 127.3 53.5C125.788 53.5 124.338 54.1005 123.269 55.1695C122.201 56.2385 121.6 57.6883 121.6 59.2H133ZM11.4 59.2C11.4 57.6883 10.7995 56.2385 9.73051 55.1695C8.66155 54.1005 7.21173 53.5 5.7 53.5C4.18827 53.5 2.73845 54.1005 1.66949 55.1695C0.600533 56.2385 0 57.6883 0 59.2H11.4ZM93.1912 115.014C91.8689 115.748 90.8923 116.977 90.4761 118.431C90.0599 119.885 90.2383 121.444 90.972 122.766C91.7057 124.089 92.9346 125.065 94.3884 125.481C95.8422 125.898 97.4017 125.719 98.724 124.986L93.1912 115.014ZM121.6 59.2V66.8H133V59.2H121.6ZM11.4 66.8V59.2H0V66.8H11.4ZM66.5 121.9C51.8866 121.9 37.8717 116.095 27.5384 105.762C17.2052 95.4283 11.4 81.4134 11.4 66.8H0C0 84.4369 7.00623 101.351 19.4774 113.823C31.9486 126.294 48.8631 133.3 66.5 133.3V121.9ZM121.6 66.8C121.604 76.6416 118.97 86.3043 113.974 94.7835C108.978 103.263 101.802 110.248 93.1912 115.014L98.724 124.986C109.113 119.232 117.772 110.801 123.8 100.569C129.827 90.3362 133.004 78.6759 133 66.8H121.6Z" fill="#B7B198"/>
</g>
</svg>
