<svg width="26" height="26" viewBox="0 0 76 76" fill="none" xmlns="http://www.w3.org/2000/svg">
<g clip-path="url(#clip0_51_11)">
<mask id="path-1-inside-1_51_11" fill="white">
<path d="M14.6661 60.8607C11.5911 56.8858 10.6798 55.5882 9.97858 54.317L9.83233 54.0433C9.67636 53.7626 9.52385 53.4801 9.37483 53.1957C9.18141 52.8296 9.0062 52.4542 8.84983 52.0707C8.19733 50.4507 8.07358 49.022 9.11233 47.702C10.9311 45.377 13.8861 46.0333 16.3761 48.1632C17.9811 49.532 20.3736 51.9883 21.8323 53.7357C22.7886 54.8795 24.5323 56.0645 25.8073 56.4883C25.9301 56.5298 26.0553 56.5636 26.1823 56.5895L26.8498 54.4895C24.3522 53.6254 21.9918 52.4067 19.8411 50.8708C14.9661 47.3608 10.7286 40.472 11.0923 35.2182C11.3173 31.8995 12.4423 28.6445 14.4298 25.4832C14.2632 23.9411 14.1718 22.3918 14.1561 20.8407C14.1561 19.007 14.7561 17.0157 15.9073 14.8295C16.1125 14.4412 16.4171 14.1143 16.79 13.8824C17.163 13.6504 17.5908 13.5218 18.0298 13.5095C20.0471 13.4455 22.0636 13.66 24.0223 14.147C25.7286 14.5782 27.5323 15.3357 29.4411 16.4157C32.2986 15.8232 35.0661 15.5232 37.7511 15.5232C40.4398 15.5232 43.2373 15.8232 46.1473 16.4195C48.6298 15.0282 50.8123 14.0832 52.7173 13.5882C55.1923 12.947 57.4198 13.1382 59.2536 14.2707C59.5062 14.4272 59.7285 14.6279 59.9098 14.8632C61.0348 16.3182 61.6573 18.2495 61.8598 20.6307C62.0173 22.4457 61.9611 24.2495 61.6911 26.0382C63.3148 28.4795 64.3723 31.5995 64.8936 35.3757C65.7411 41.5407 62.9248 47.8895 58.4511 51.5457C56.3661 53.2482 53.5011 54.5833 49.8486 55.5957C50.0811 56.4058 50.2461 57.212 50.3436 58.0183C50.5086 59.3458 50.6248 62.9083 50.7036 68.8558C54.8361 66.7032 58.0423 64.5807 60.3223 62.4995C64.2036 58.9633 67.1286 53.9457 69.0336 48.1183C70.6273 43.2433 70.9348 39.1295 70.1473 34.5957C69.1836 29.0833 67.7961 24.587 65.7073 20.9795C63.2623 16.757 59.3623 12.767 54.6973 9.84949C50.2348 7.052 42.9973 5.18074 37.2973 5.18074C31.3123 5.18074 24.6148 7.1195 19.5336 10.7045C14.5911 14.192 10.4961 19.442 8.12233 24.5907C6.24358 28.6707 5.47108 33.017 5.47108 39.4333C5.47108 44.6307 7.36108 50.9458 9.58858 54.8983C11.3473 58.0182 13.8448 60.9733 17.5161 64.1833C19.3648 65.8032 21.9786 67.4195 25.3536 69.017V67.4308C20.8348 66.3808 17.2423 64.1907 14.6661 60.8607ZM18.5961 57.8608C20.7336 60.632 23.8873 62.3308 28.1961 62.9608C28.7819 63.0462 29.3174 63.3394 29.705 63.7869C30.0925 64.2344 30.3063 64.8063 30.3073 65.3983V72.797C30.3051 73.203 30.2031 73.6023 30.0102 73.9595C29.8172 74.3168 29.5394 74.6211 29.2011 74.8457C28.8628 75.0702 28.4744 75.2081 28.0703 75.2471C27.6661 75.2862 27.2586 75.2252 26.8836 75.0695C21.3523 72.797 17.1448 70.4195 14.2423 67.8807C10.1698 64.3183 7.31608 60.9357 5.26483 57.3058C2.64733 52.652 0.517334 45.5307 0.517334 39.4295C0.517334 32.3608 1.40983 27.3357 3.61858 22.5432C6.33358 16.6483 10.9648 10.7157 16.6686 6.69199C22.6198 2.492 30.3186 0.260742 37.2898 0.260742C43.8898 0.260742 52.0386 2.36825 57.3336 5.68324C62.6736 9.02824 67.1436 13.5995 69.9936 18.5232C72.4273 22.7195 73.9723 27.722 75.0223 33.7557C75.9523 39.0845 75.5848 44.0083 73.7436 49.637C71.5911 56.2107 68.2423 61.9558 63.6711 66.1257C60.3636 69.1407 55.5861 72.092 49.3198 75.0245C48.9451 75.2016 48.5319 75.2818 48.1181 75.2577C47.7043 75.2336 47.3032 75.1059 46.9516 74.8864C46.6 74.667 46.3091 74.3627 46.1057 74.0015C45.9023 73.6404 45.7928 73.234 45.7873 72.8195C45.7123 64.7608 45.5886 59.942 45.4236 58.6145C45.2509 57.3271 44.8749 56.0753 44.3098 54.9058C44.1526 54.5699 44.0735 54.2029 44.0784 53.8321C44.0832 53.4614 44.172 53.0965 44.338 52.765C44.5039 52.4334 44.7428 52.1437 45.0367 51.9176C45.3306 51.6915 45.6718 51.5349 46.0348 51.4595C50.3248 50.5482 53.4148 49.2845 55.2973 47.747C58.5036 45.1258 60.5848 40.4345 59.9811 36.047C59.5011 32.5745 58.5298 29.9495 57.1161 28.142C56.8982 27.8646 56.7429 27.5433 56.6607 27.2003C56.5785 26.8573 56.5714 26.5005 56.6398 26.1545C56.9773 24.467 57.0711 22.7682 56.9211 21.047C56.8161 19.8245 56.5761 18.902 56.2348 18.2645C55.6911 18.0845 54.9561 18.092 53.9623 18.3507C52.3498 18.767 50.2873 19.7007 47.8123 21.1445C47.2673 21.4642 46.6212 21.5647 46.0048 21.4257C43.2969 20.7955 40.5275 20.4672 37.7473 20.447C35.1486 20.447 32.4223 20.7695 29.5761 21.422C28.9459 21.5665 28.2843 21.4603 27.7311 21.1257C25.8936 20.0157 24.2436 19.2807 22.8036 18.9207C21.7911 18.6657 20.7411 18.5082 19.6648 18.4482C19.2861 19.3895 19.1023 20.1882 19.1023 20.8407C19.1023 22.1232 19.2148 23.7882 19.4398 25.8207C19.5033 26.3977 19.3598 26.9785 19.0348 27.4595C17.2048 30.1745 16.2148 32.8632 16.0311 35.5557C15.7986 38.8745 19.1286 44.282 22.7436 46.8845C24.9748 48.4932 27.5886 49.697 30.5923 50.492C30.9145 50.5762 31.2163 50.725 31.4793 50.9293C31.7423 51.1337 31.9611 51.3892 32.1223 51.6806C32.2836 51.972 32.3841 52.2931 32.4176 52.6244C32.4511 52.9558 32.417 53.2905 32.3173 53.6082L30.4311 59.5595C30.3184 59.9141 30.1269 60.2386 29.871 60.5088C29.6152 60.7789 29.3015 60.9877 28.9536 61.1195C27.4498 61.6895 25.8411 61.6895 24.2286 61.157C22.0836 60.4445 19.5636 58.7307 18.0148 56.8783C17.5848 56.3673 14.5924 52.092 14.1147 52.092C13.637 51.6142 17.8236 56.8633 18.5961 57.8608Z"/>
</mask>
<path d="M14.6661 60.8607C11.5911 56.8858 10.6798 55.5882 9.97858 54.317L9.83233 54.0433C9.67636 53.7626 9.52385 53.4801 9.37483 53.1957C9.18141 52.8296 9.0062 52.4542 8.84983 52.0707C8.19733 50.4507 8.07358 49.022 9.11233 47.702C10.9311 45.377 13.8861 46.0333 16.3761 48.1632C17.9811 49.532 20.3736 51.9883 21.8323 53.7357C22.7886 54.8795 24.5323 56.0645 25.8073 56.4883C25.9301 56.5298 26.0553 56.5636 26.1823 56.5895L26.8498 54.4895C24.3522 53.6254 21.9918 52.4067 19.8411 50.8708C14.9661 47.3608 10.7286 40.472 11.0923 35.2182C11.3173 31.8995 12.4423 28.6445 14.4298 25.4832C14.2632 23.9411 14.1718 22.3918 14.1561 20.8407C14.1561 19.007 14.7561 17.0157 15.9073 14.8295C16.1125 14.4412 16.4171 14.1143 16.79 13.8824C17.163 13.6504 17.5908 13.5218 18.0298 13.5095C20.0471 13.4455 22.0636 13.66 24.0223 14.147C25.7286 14.5782 27.5323 15.3357 29.4411 16.4157C32.2986 15.8232 35.0661 15.5232 37.7511 15.5232C40.4398 15.5232 43.2373 15.8232 46.1473 16.4195C48.6298 15.0282 50.8123 14.0832 52.7173 13.5882C55.1923 12.947 57.4198 13.1382 59.2536 14.2707C59.5062 14.4272 59.7285 14.6279 59.9098 14.8632C61.0348 16.3182 61.6573 18.2495 61.8598 20.6307C62.0173 22.4457 61.9611 24.2495 61.6911 26.0382C63.3148 28.4795 64.3723 31.5995 64.8936 35.3757C65.7411 41.5407 62.9248 47.8895 58.4511 51.5457C56.3661 53.2482 53.5011 54.5833 49.8486 55.5957C50.0811 56.4058 50.2461 57.212 50.3436 58.0183C50.5086 59.3458 50.6248 62.9083 50.7036 68.8558C54.8361 66.7032 58.0423 64.5807 60.3223 62.4995C64.2036 58.9633 67.1286 53.9457 69.0336 48.1183C70.6273 43.2433 70.9348 39.1295 70.1473 34.5957C69.1836 29.0833 67.7961 24.587 65.7073 20.9795C63.2623 16.757 59.3623 12.767 54.6973 9.84949C50.2348 7.052 42.9973 5.18074 37.2973 5.18074C31.3123 5.18074 24.6148 7.1195 19.5336 10.7045C14.5911 14.192 10.4961 19.442 8.12233 24.5907C6.24358 28.6707 5.47108 33.017 5.47108 39.4333C5.47108 44.6307 7.36108 50.9458 9.58858 54.8983C11.3473 58.0182 13.8448 60.9733 17.5161 64.1833C19.3648 65.8032 21.9786 67.4195 25.3536 69.017V67.4308C20.8348 66.3808 17.2423 64.1907 14.6661 60.8607ZM18.5961 57.8608C20.7336 60.632 23.8873 62.3308 28.1961 62.9608C28.7819 63.0462 29.3174 63.3394 29.705 63.7869C30.0925 64.2344 30.3063 64.8063 30.3073 65.3983V72.797C30.3051 73.203 30.2031 73.6023 30.0102 73.9595C29.8172 74.3168 29.5394 74.6211 29.2011 74.8457C28.8628 75.0702 28.4744 75.2081 28.0703 75.2471C27.6661 75.2862 27.2586 75.2252 26.8836 75.0695C21.3523 72.797 17.1448 70.4195 14.2423 67.8807C10.1698 64.3183 7.31608 60.9357 5.26483 57.3058C2.64733 52.652 0.517334 45.5307 0.517334 39.4295C0.517334 32.3608 1.40983 27.3357 3.61858 22.5432C6.33358 16.6483 10.9648 10.7157 16.6686 6.69199C22.6198 2.492 30.3186 0.260742 37.2898 0.260742C43.8898 0.260742 52.0386 2.36825 57.3336 5.68324C62.6736 9.02824 67.1436 13.5995 69.9936 18.5232C72.4273 22.7195 73.9723 27.722 75.0223 33.7557C75.9523 39.0845 75.5848 44.0083 73.7436 49.637C71.5911 56.2107 68.2423 61.9558 63.6711 66.1257C60.3636 69.1407 55.5861 72.092 49.3198 75.0245C48.9451 75.2016 48.5319 75.2818 48.1181 75.2577C47.7043 75.2336 47.3032 75.1059 46.9516 74.8864C46.6 74.667 46.3091 74.3627 46.1057 74.0015C45.9023 73.6404 45.7928 73.234 45.7873 72.8195C45.7123 64.7608 45.5886 59.942 45.4236 58.6145C45.2509 57.3271 44.8749 56.0753 44.3098 54.9058C44.1526 54.5699 44.0735 54.2029 44.0784 53.8321C44.0832 53.4614 44.172 53.0965 44.338 52.765C44.5039 52.4334 44.7428 52.1437 45.0367 51.9176C45.3306 51.6915 45.6718 51.5349 46.0348 51.4595C50.3248 50.5482 53.4148 49.2845 55.2973 47.747C58.5036 45.1258 60.5848 40.4345 59.9811 36.047C59.5011 32.5745 58.5298 29.9495 57.1161 28.142C56.8982 27.8646 56.7429 27.5433 56.6607 27.2003C56.5785 26.8573 56.5714 26.5005 56.6398 26.1545C56.9773 24.467 57.0711 22.7682 56.9211 21.047C56.8161 19.8245 56.5761 18.902 56.2348 18.2645C55.6911 18.0845 54.9561 18.092 53.9623 18.3507C52.3498 18.767 50.2873 19.7007 47.8123 21.1445C47.2673 21.4642 46.6212 21.5647 46.0048 21.4257C43.2969 20.7955 40.5275 20.4672 37.7473 20.447C35.1486 20.447 32.4223 20.7695 29.5761 21.422C28.9459 21.5665 28.2843 21.4603 27.7311 21.1257C25.8936 20.0157 24.2436 19.2807 22.8036 18.9207C21.7911 18.6657 20.7411 18.5082 19.6648 18.4482C19.2861 19.3895 19.1023 20.1882 19.1023 20.8407C19.1023 22.1232 19.2148 23.7882 19.4398 25.8207C19.5033 26.3977 19.3598 26.9785 19.0348 27.4595C17.2048 30.1745 16.2148 32.8632 16.0311 35.5557C15.7986 38.8745 19.1286 44.282 22.7436 46.8845C24.9748 48.4932 27.5886 49.697 30.5923 50.492C30.9145 50.5762 31.2163 50.725 31.4793 50.9293C31.7423 51.1337 31.9611 51.3892 32.1223 51.6806C32.2836 51.972 32.3841 52.2931 32.4176 52.6244C32.4511 52.9558 32.417 53.2905 32.3173 53.6082L30.4311 59.5595C30.3184 59.9141 30.1269 60.2386 29.871 60.5088C29.6152 60.7789 29.3015 60.9877 28.9536 61.1195C27.4498 61.6895 25.8411 61.6895 24.2286 61.157C22.0836 60.4445 19.5636 58.7307 18.0148 56.8783C17.5848 56.3673 14.5924 52.092 14.1147 52.092C13.637 51.6142 17.8236 56.8633 18.5961 57.8608Z" fill="#B7AB98" stroke="black" stroke-width="1" mask="url(#path-1-inside-1_51_11)"/>
</g>
<defs>
<clipPath id="clip0_51_11">
<rect width="75" height="75" fill="white" transform="translate(0.5 0.5)"/>
</clipPath>
</defs>
</svg>
