<svg width="183" height="183" viewBox="0 0 183 183" fill="none" xmlns="http://www.w3.org/2000/svg">
<circle cx="91.5" cy="91.5" r="91.5" fill="#EB5939"/>
<path d="M51.377 67.6243C51.2291 67.1449 51.0249 66.7158 50.7645 66.337C50.51 65.9523 50.2022 65.6238 49.8412 65.3516C49.4861 65.0793 49.0777 64.8751 48.616 64.739C48.1544 64.5969 47.6513 64.5259 47.1068 64.5259C46.1302 64.5259 45.2602 64.7715 44.4967 65.2628C43.7332 65.754 43.1325 66.4761 42.6945 67.429C42.2625 68.3759 42.0464 69.5301 42.0464 70.8913C42.0464 72.2644 42.2625 73.4274 42.6945 74.3803C43.1266 75.3332 43.7273 76.0582 44.4967 76.5554C45.2661 77.0466 46.1598 77.2923 47.1778 77.2923C48.1011 77.2923 48.9001 77.1147 49.5748 76.7596C50.2555 76.4045 50.7793 75.9014 51.1462 75.2504C51.5132 74.5934 51.6966 73.824 51.6966 72.9421L52.4424 73.0575H47.5063V70.483H54.8838V72.6669C54.8838 74.2235 54.5523 75.57 53.8895 76.7063C53.2266 77.8427 52.3151 78.7186 51.1551 79.3342C49.9951 79.9438 48.6634 80.2486 47.1601 80.2486C45.4851 80.2486 44.0144 79.8728 42.7478 79.1211C41.4871 78.3635 40.5017 77.2893 39.7915 75.8984C39.0872 74.5017 38.735 72.8445 38.735 70.9268C38.735 69.459 38.9421 68.1481 39.3564 66.994C39.7767 65.8398 40.3626 64.8603 41.1143 64.0554C41.8659 63.2446 42.7478 62.629 43.7599 62.2088C44.7719 61.7827 45.8728 61.5696 47.0624 61.5696C48.0686 61.5696 49.0067 61.7176 49.8767 62.0135C50.7467 62.3035 51.5191 62.7178 52.1938 63.2564C52.8744 63.795 53.4337 64.4342 53.8717 65.174C54.3097 65.9138 54.5967 66.7306 54.7329 67.6243H51.377ZM78.8152 70.9091C78.8152 72.8681 78.4482 74.546 77.7143 75.9428C76.9863 77.3337 75.992 78.399 74.7314 79.1388C73.4766 79.8787 72.0532 80.2486 70.4611 80.2486C68.869 80.2486 67.4426 79.8787 66.182 79.1388C64.9273 78.3931 63.9329 77.3248 63.199 75.9339C62.4711 74.5372 62.1071 72.8622 62.1071 70.9091C62.1071 68.95 62.4711 67.2751 63.199 65.8842C63.9329 64.4875 64.9273 63.4192 66.182 62.6793C67.4426 61.9395 68.869 61.5696 70.4611 61.5696C72.0532 61.5696 73.4766 61.9395 74.7314 62.6793C75.992 63.4192 76.9863 64.4875 77.7143 65.8842C78.4482 67.2751 78.8152 68.95 78.8152 70.9091ZM75.5037 70.9091C75.5037 69.5301 75.2877 68.3671 74.8556 67.4201C74.4295 66.4672 73.8377 65.7481 73.0801 65.2628C72.3225 64.7715 71.4495 64.5259 70.4611 64.5259C69.4727 64.5259 68.5997 64.7715 67.8422 65.2628C67.0846 65.7481 66.4898 66.4672 66.0577 67.4201C65.6316 68.3671 65.4185 69.5301 65.4185 70.9091C65.4185 72.2881 65.6316 73.4541 66.0577 74.407C66.4898 75.3539 67.0846 76.073 67.8422 76.5643C68.5997 77.0496 69.4727 77.2923 70.4611 77.2923C71.4495 77.2923 72.3225 77.0496 73.0801 76.5643C73.8377 76.073 74.4295 75.3539 74.8556 74.407C75.2877 73.4541 75.5037 72.2881 75.5037 70.9091ZM96.3312 64.5792V61.8182H110.838V64.5792H105.218V80H101.951V64.5792H96.3312ZM133.575 70.9091C133.575 72.8681 133.208 74.546 132.474 75.9428C131.746 77.3337 130.752 78.399 129.491 79.1388C128.236 79.8787 126.813 80.2486 125.221 80.2486C123.629 80.2486 122.202 79.8787 120.942 79.1388C119.687 78.3931 118.693 77.3248 117.959 75.9339C117.231 74.5372 116.867 72.8622 116.867 70.9091C116.867 68.95 117.231 67.2751 117.959 65.8842C118.693 64.4875 119.687 63.4192 120.942 62.6793C122.202 61.9395 123.629 61.5696 125.221 61.5696C126.813 61.5696 128.236 61.9395 129.491 62.6793C130.752 63.4192 131.746 64.4875 132.474 65.8842C133.208 67.2751 133.575 68.95 133.575 70.9091ZM130.263 70.9091C130.263 69.5301 130.047 68.3671 129.615 67.4201C129.189 66.4672 128.597 65.7481 127.84 65.2628C127.082 64.7715 126.209 64.5259 125.221 64.5259C124.232 64.5259 123.359 64.7715 122.602 65.2628C121.844 65.7481 121.25 66.4672 120.817 67.4201C120.391 68.3671 120.178 69.5301 120.178 70.9091C120.178 72.2881 120.391 73.4541 120.817 74.407C121.25 75.3539 121.844 76.073 122.602 76.5643C123.359 77.0496 124.232 77.2923 125.221 77.2923C126.209 77.2923 127.082 77.0496 127.84 76.5643C128.597 76.073 129.189 75.3539 129.615 74.407C130.047 73.4541 130.263 72.2881 130.263 70.9091ZM32.91 123V104.818H39.7282C41.125 104.818 42.2969 105.079 43.2438 105.599C44.1967 106.12 44.9158 106.836 45.4011 107.748C45.8924 108.653 46.138 109.683 46.138 110.837C46.138 112.003 45.8924 113.039 45.4011 113.945C44.9099 114.85 44.1849 115.563 43.2261 116.084C42.2673 116.599 41.0865 116.857 39.6838 116.857H35.165V114.149H39.2399C40.0567 114.149 40.7255 114.007 41.2463 113.723C41.7671 113.439 42.1519 113.048 42.4004 112.551C42.6549 112.054 42.7822 111.482 42.7822 110.837C42.7822 110.192 42.6549 109.624 42.4004 109.133C42.1519 108.642 41.7642 108.26 41.2374 107.988C40.7166 107.709 40.0448 107.57 39.2222 107.57H36.2037V123H32.91ZM69.7453 113.909C69.7453 115.868 69.3784 117.546 68.6445 118.943C67.9165 120.334 66.9222 121.399 65.6615 122.139C64.4068 122.879 62.9834 123.249 61.3913 123.249C59.7992 123.249 58.3728 122.879 57.1122 122.139C55.8574 121.393 54.8631 120.325 54.1292 118.934C53.4012 117.537 53.0372 115.862 53.0372 113.909C53.0372 111.95 53.4012 110.275 54.1292 108.884C54.8631 107.487 55.8574 106.419 57.1122 105.679C58.3728 104.94 59.7992 104.57 61.3913 104.57C62.9834 104.57 64.4068 104.94 65.6615 105.679C66.9222 106.419 67.9165 107.487 68.6445 108.884C69.3784 110.275 69.7453 111.95 69.7453 113.909ZM66.4339 113.909C66.4339 112.53 66.2179 111.367 65.7858 110.42C65.3597 109.467 64.7678 108.748 64.0103 108.263C63.2527 107.772 62.3797 107.526 61.3913 107.526C60.4029 107.526 59.5299 107.772 58.7723 108.263C58.0148 108.748 57.4199 109.467 56.9879 110.42C56.5617 111.367 56.3487 112.53 56.3487 113.909C56.3487 115.288 56.5617 116.454 56.9879 117.407C57.4199 118.354 58.0148 119.073 58.7723 119.564C59.5299 120.05 60.4029 120.292 61.3913 120.292C62.3797 120.292 63.2527 120.05 64.0103 119.564C64.7678 119.073 65.3597 118.354 65.7858 117.407C66.2179 116.454 66.4339 115.288 66.4339 113.909ZM77.3592 123V104.818H84.1774C85.5742 104.818 86.7461 105.061 87.693 105.546C88.6459 106.031 89.365 106.712 89.8504 107.588C90.3416 108.458 90.5872 109.473 90.5872 110.633C90.5872 111.799 90.3386 112.811 89.8415 113.669C89.3502 114.522 88.6252 115.182 87.6664 115.649C86.7076 116.111 85.5298 116.342 84.133 116.342H79.2769V113.607H83.6891C84.5059 113.607 85.1747 113.495 85.6955 113.27C86.2164 113.039 86.6011 112.705 86.8497 112.267C87.1042 111.823 87.2314 111.278 87.2314 110.633C87.2314 109.988 87.1042 109.438 86.8497 108.982C86.5952 108.52 86.2075 108.171 85.6867 107.934C85.1658 107.692 84.4941 107.57 83.6714 107.57H80.6529V123H77.3592ZM86.752 114.761L91.2531 123H87.5776L83.1565 114.761H86.752ZM97.32 107.579V104.818H111.826V107.579H106.207V123H102.94V107.579H97.32ZM119.261 123H115.745L122.146 104.818H126.212L132.622 123H129.106L124.25 108.547H124.108L119.261 123ZM119.376 115.871H128.964V118.517H119.376V115.871ZM139.516 123V104.818H142.81V120.239H150.818V123H139.516Z" fill="black"/>
</svg>
